<mxfile host="65bd71144e">
    <diagram id="HIP3nbAZw_EuaXWnEj3U" name="Page-1">
        <mxGraphModel dx="1086" dy="743" grid="1" gridSize="10" guides="1" tooltips="1" connect="1" arrows="1" fold="1" page="1" pageScale="1" pageWidth="850" pageHeight="1100" math="0" shadow="0">
            <root>
                <mxCell id="0"/>
                <mxCell id="1" parent="0"/>
                <mxCell id="7" value="http://ics2o.mths.ca" style="swimlane;whiteSpace=wrap;html=1;" parent="1" vertex="1">
                    <mxGeometry x="40" y="40" width="760" height="480" as="geometry"/>
                </mxCell>
                <mxCell id="8" value="Triangles" style="rounded=0;whiteSpace=wrap;html=1;" vertex="1" parent="7">
                    <mxGeometry y="20" width="760" height="60" as="geometry"/>
                </mxCell>
                <mxCell id="9" value="Enter the length of each side" style="text;strokeColor=none;fillColor=none;html=1;fontSize=24;fontStyle=1;verticalAlign=middle;align=center;" vertex="1" parent="7">
                    <mxGeometry x="120" y="90" width="100" height="40" as="geometry"/>
                </mxCell>
                <mxCell id="10" value="Side A:&lt;br&gt;&lt;br&gt;&lt;br&gt;&lt;br&gt;Side B:&lt;br&gt;&lt;br&gt;&lt;br&gt;&lt;br&gt;Side C:" style="text;html=1;strokeColor=none;fillColor=none;align=center;verticalAlign=middle;whiteSpace=wrap;rounded=0;" vertex="1" parent="7">
                    <mxGeometry y="180" width="60" height="30" as="geometry"/>
                </mxCell>
                <mxCell id="11" value="15" style="rounded=0;whiteSpace=wrap;html=1;" vertex="1" parent="7">
                    <mxGeometry x="10" y="160" width="120" height="20" as="geometry"/>
                </mxCell>
                <mxCell id="12" value="15" style="rounded=0;whiteSpace=wrap;html=1;" vertex="1" parent="7">
                    <mxGeometry x="10" y="210" width="120" height="20" as="geometry"/>
                </mxCell>
                <mxCell id="13" value="15" style="rounded=0;whiteSpace=wrap;html=1;" vertex="1" parent="7">
                    <mxGeometry x="10" y="270" width="120" height="20" as="geometry"/>
                </mxCell>
                <mxCell id="14" value="This is an equilateral triangle!" style="text;strokeColor=none;fillColor=none;html=1;fontSize=24;fontStyle=1;verticalAlign=middle;align=center;" vertex="1" parent="7">
                    <mxGeometry x="130" y="300" width="100" height="40" as="geometry"/>
                </mxCell>
            </root>
        </mxGraphModel>
    </diagram>
</mxfile>